<?xml version="1.0" encoding="UTF-8"?>
<!--Generator: Apple Native CoreSVG 341-->
<!DOCTYPE svg
PUBLIC "-//W3C//DTD SVG 1.1//EN"
       "http://www.w3.org/Graphics/SVG/1.1/DTD/svg11.dtd">
<svg version="1.1" xmlns="http://www.w3.org/2000/svg" xmlns:xlink="http://www.w3.org/1999/xlink" viewBox="0 0 18.0311 18.0609">
 <g>
  <rect height="18.0609" opacity="0" width="18.0311" x="0" y="0"/>
  <path d="M14.6173 16.2464C14.1155 16.2464 13.7152 16.6466 13.7152 17.1464C13.7152 17.6482 14.1155 18.0485 14.6173 18.0485C15.1171 18.0485 15.5173 17.6482 15.5173 17.1464C15.5173 16.6466 15.1171 16.2464 14.6173 16.2464ZM12.1014 16.2464C11.6017 16.2464 11.2014 16.6466 11.2014 17.1464C11.2014 17.6482 11.6017 18.0485 12.1014 18.0485C12.6033 18.0485 13.0014 17.6482 13.0014 17.1464C13.0014 16.6466 12.6033 16.2464 12.1014 16.2464ZM9.58762 16.2464C9.08786 16.2464 8.68762 16.6466 8.68762 17.1464C8.68762 17.6482 9.08786 18.0485 9.58762 18.0485C10.0895 18.0485 10.4876 17.6482 10.4876 17.1464C10.4876 16.6466 10.0895 16.2464 9.58762 16.2464ZM7.07381 16.2464C6.57196 16.2464 6.17381 16.6466 6.17381 17.1464C6.17381 17.6482 6.57196 18.0485 7.07381 18.0485C7.57357 18.0485 7.97381 17.6482 7.97381 17.1464C7.97381 16.6466 7.57357 16.2464 7.07381 16.2464ZM17.1311 6.19117C16.6293 6.19117 16.2311 6.58932 16.2311 7.09119C16.2311 7.59092 16.6293 7.99119 17.1311 7.99119C17.6309 7.99119 18.0311 7.59092 18.0311 7.09119C18.0311 6.58932 17.6309 6.19117 17.1311 6.19117ZM17.1311 8.70497C16.6293 8.70497 16.2311 9.10313 16.2311 9.60497C16.2311 10.1047 16.6293 10.505 17.1311 10.505C17.6309 10.505 18.0311 10.1047 18.0311 9.60497C18.0311 9.10313 17.6309 8.70497 17.1311 8.70497ZM17.1311 11.2188C16.6293 11.2188 16.2311 11.619 16.2311 12.1188C16.2311 12.6206 16.6293 13.0188 17.1311 13.0188C17.6309 13.0188 18.0311 12.6206 18.0311 12.1188C18.0311 11.619 17.6309 11.2188 17.1311 11.2188ZM17.1311 13.7326C16.6293 13.7326 16.2311 14.1328 16.2311 14.6326C16.2311 15.1344 16.6293 15.5326 17.1311 15.5326C17.6309 15.5326 18.0311 15.1344 18.0311 14.6326C18.0311 14.1328 17.6309 13.7326 17.1311 13.7326ZM17.1311 16.2464C16.6293 16.2464 16.2311 16.6466 16.2311 17.1464C16.2311 17.6482 16.6293 18.0485 17.1311 18.0485C17.6309 18.0485 18.0311 17.6482 18.0311 17.1464C18.0311 16.6466 17.6309 16.2464 17.1311 16.2464Z" fill="white" fill-opacity="0.85"/>
  <path d="M8.44533 10.0573C7.94348 10.0573 7.54533 10.4576 7.54533 10.9573C7.54533 11.4592 7.94348 11.8573 8.44533 11.8573C8.94507 11.8573 9.34534 11.4592 9.34534 10.9573C9.34534 10.4576 8.94507 10.0573 8.44533 10.0573ZM5.93152 10.0573C5.42968 10.0573 5.02941 10.4576 5.02941 10.9573C5.02941 11.4592 5.42968 11.8573 5.93152 11.8573C6.43129 11.8573 6.83155 11.4592 6.83155 10.9573C6.83155 10.4576 6.43129 10.0573 5.93152 10.0573ZM3.41563 10.0573C2.91589 10.0573 2.51563 10.4576 2.51563 10.9573C2.51563 11.4592 2.91589 11.8573 3.41563 11.8573C3.91748 11.8573 4.31563 11.4592 4.31563 10.9573C4.31563 10.4576 3.91748 10.0573 3.41563 10.0573ZM0.901823 10.0573C0.40208 10.0573 0.00182341 10.4576 0.00182341 10.9573C0.00182341 11.4592 0.40208 11.8573 0.901823 11.8573C1.40369 11.8573 1.80184 11.4592 1.80184 10.9573C1.80184 10.4576 1.40369 10.0573 0.901823 10.0573ZM10.9591 0C10.4573 0 10.0591 0.400262 10.0591 0.90211C10.0591 1.40187 10.4573 1.80211 10.9591 1.80211C11.4589 1.80211 11.8591 1.40187 11.8591 0.90211C11.8591 0.400262 11.4589 0 10.9591 0ZM10.9591 2.5159C10.4573 2.5159 10.0591 2.91405 10.0591 3.41592C10.0591 3.91566 10.4573 4.31592 10.9591 4.31592C11.4589 4.31592 11.8591 3.91566 11.8591 3.41592C11.8591 2.91405 11.4589 2.5159 10.9591 2.5159ZM10.9591 5.02971C10.4573 5.02971 10.0591 5.42786 10.0591 5.92971C10.0591 6.42946 10.4573 6.82971 10.9591 6.82971C11.4589 6.82971 11.8591 6.42946 11.8591 5.92971C11.8591 5.42786 11.4589 5.02971 10.9591 5.02971ZM10.9591 7.54349C10.4573 7.54349 10.0591 7.94375 10.0591 8.44351C10.0591 8.94536 10.4573 9.34351 10.9591 9.34351C11.4589 9.34351 11.8591 8.94536 11.8591 8.44351C11.8591 7.94375 11.4589 7.54349 10.9591 7.54349ZM10.9591 10.0573C10.4573 10.0573 10.0591 10.4576 10.0591 10.9573C10.0591 11.4592 10.4573 11.8573 10.9591 11.8573C11.4589 11.8573 11.8591 11.4592 11.8591 10.9573C11.8591 10.4576 11.4589 10.0573 10.9591 10.0573Z" fill="white" fill-opacity="0.85"/>
 </g>
</svg>
